<svg xmlns="http://www.w3.org/2000/svg" viewBox="0 0 360 80" width="360" height="80">
  <!-- Kendall AC Repairs - Full Horizontal Logo (White for Dark BG) -->
  <g transform="translate(8, 8)">
    <!-- Icon -->
    <rect x="0" y="0" width="64" height="64" rx="14" fill="#1A6FAF"/>
    <rect x="2.5" y="2.5" width="59" height="59" rx="12" fill="none" stroke="#ffffff" stroke-width="0.5" opacity="0.15"/>
    <g transform="translate(32, 32)">
      <circle cx="0" cy="0" r="4" fill="#ffffff" opacity="0.9"/>
      <path d="M0,-5.5 C8,-5.5 11,-19 3,-23 C-1,-25 -4,-20 -1.5,-17 C3,-13 3,-8 0,-5.5Z" fill="#ffffff" opacity="0.95"/>
      <path d="M0,-5.5 C8,-5.5 11,-19 3,-23 C-1,-25 -4,-20 -1.5,-17 C3,-13 3,-8 0,-5.5Z" fill="#ffffff" opacity="0.95" transform="rotate(120)"/>
      <path d="M0,-5.5 C8,-5.5 11,-19 3,-23 C-1,-25 -4,-20 -1.5,-17 C3,-13 3,-8 0,-5.5Z" fill="#ffffff" opacity="0.95" transform="rotate(240)"/>
    </g>
    <rect x="40" y="44" width="20" height="3" rx="1.5" fill="#F76707"/>
    <rect x="44" y="50" width="16" height="3" rx="1.5" fill="#F76707" opacity="0.7"/>
    <rect x="48" y="56" width="12" height="3" rx="1.5" fill="#F76707" opacity="0.4"/>
    <!-- Text White -->
    <text x="80" y="30" font-family="'Plus Jakarta Sans','Segoe UI',system-ui,sans-serif" font-size="28" font-weight="800" letter-spacing="-0.3" fill="#ffffff">KENDALL</text>
    <text x="80" y="54" font-family="'Plus Jakarta Sans','Segoe UI',system-ui,sans-serif" font-size="17" font-weight="600" letter-spacing="4.5" fill="#5DADE2">AC REPAIRS</text>
    <rect x="80" y="60" width="120" height="2" rx="1" fill="#F76707"/>
  </g>
</svg>