<svg xmlns="http://www.w3.org/2000/svg" viewBox="0 0 400 400" width="400" height="400">
  <!-- Kendall AC Repairs - Stacked Logo WHITE (Dark BG / Vehicle Wraps / Shirts) -->
  <!-- Icon centered -->
  <g transform="translate(150, 40)">
    <rect x="0" y="0" width="100" height="100" rx="22" fill="#1A6FAF"/>
    <rect x="3" y="3" width="94" height="94" rx="19" fill="none" stroke="#ffffff" stroke-width="0.5" opacity="0.15"/>
    <g transform="translate(50, 48)">
      <circle cx="0" cy="0" r="6" fill="#ffffff" opacity="0.9"/>
      <path d="M0,-8 C12,-8 16,-28 4,-34 C-2,-37 -6,-30 -2,-26 C4,-20 4,-12 0,-8Z" fill="#ffffff" opacity="0.95"/>
      <path d="M0,-8 C12,-8 16,-28 4,-34 C-2,-37 -6,-30 -2,-26 C4,-20 4,-12 0,-8Z" fill="#ffffff" opacity="0.95" transform="rotate(120)"/>
      <path d="M0,-8 C12,-8 16,-28 4,-34 C-2,-37 -6,-30 -2,-26 C4,-20 4,-12 0,-8Z" fill="#ffffff" opacity="0.95" transform="rotate(240)"/>
    </g>
    <rect x="60" y="68" width="32" height="4" rx="2" fill="#F76707"/>
    <rect x="66" y="76" width="26" height="4" rx="2" fill="#F76707" opacity="0.7"/>
    <rect x="72" y="84" width="20" height="4" rx="2" fill="#F76707" opacity="0.4"/>
  </g>
  <!-- Text white -->
  <text x="200" y="190" text-anchor="middle" font-family="'Plus Jakarta Sans','Segoe UI',system-ui,sans-serif" font-size="46" font-weight="800" letter-spacing="-0.5" fill="#ffffff">KENDALL</text>
  <text x="200" y="228" text-anchor="middle" font-family="'Plus Jakarta Sans','Segoe UI',system-ui,sans-serif" font-size="26" font-weight="600" letter-spacing="7" fill="#5DADE2">AC REPAIRS</text>
  <rect x="115" y="242" width="170" height="3" rx="1.5" fill="#F76707"/>
  <text x="200" y="285" text-anchor="middle" font-family="'DM Sans','Segoe UI',sans-serif" font-size="14" font-weight="500" letter-spacing="2.5" fill="rgba(255,255,255,0.5)">SERVICIO 24/7 EN KENDALL, FL</text>
  <line x1="60" y1="310" x2="340" y2="310" stroke="rgba(255,255,255,0.1)" stroke-width="0.5"/>
  <text x="200" y="338" text-anchor="middle" font-family="'DM Sans','Segoe UI',sans-serif" font-size="12" font-weight="500" letter-spacing="1.5" fill="rgba(255,255,255,0.4)">LICENCIADO &amp; ASEGURADO</text>
  <text x="200" y="365" text-anchor="middle" font-family="'Plus Jakarta Sans','Segoe UI',sans-serif" font-size="20" font-weight="700" letter-spacing="0.5" fill="#ffffff">(305) 306-4511</text>
</svg>