<svg xmlns="http://www.w3.org/2000/svg" viewBox="0 0 512 512" width="512" height="512">
  <!-- Kendall AC Repairs - Icon Only (Favicon / App Icon) -->
  <rect x="0" y="0" width="512" height="512" rx="112" fill="#1A6FAF"/>
  <rect x="16" y="16" width="480" height="480" rx="100" fill="none" stroke="#ffffff" stroke-width="3" opacity="0.1"/>
  <g transform="translate(256, 240)">
    <circle cx="0" cy="0" r="32" fill="#ffffff" opacity="0.9"/>
    <path d="M0,-44 C64,-44 88,-152 24,-184 C-8,-200 -32,-160 -12,-128 C24,-104 24,-64 0,-44Z" fill="#ffffff" opacity="0.95"/>
    <path d="M0,-44 C64,-44 88,-152 24,-184 C-8,-200 -32,-160 -12,-128 C24,-104 24,-64 0,-44Z" fill="#ffffff" opacity="0.95" transform="rotate(120)"/>
    <path d="M0,-44 C64,-44 88,-152 24,-184 C-8,-200 -32,-160 -12,-128 C24,-104 24,-64 0,-44Z" fill="#ffffff" opacity="0.95" transform="rotate(240)"/>
  </g>
  <rect x="288" y="340" width="160" height="24" rx="12" fill="#F76707"/>
  <rect x="320" y="374" width="128" height="24" rx="12" fill="#F76707" opacity="0.7"/>
  <rect x="352" y="408" width="96" height="24" rx="12" fill="#F76707" opacity="0.4"/>
</svg>